<svg version="1.1" id="Layer_1" xmlns="http://www.w3.org/2000/svg" xmlns:xlink="http://www.w3.org/1999/xlink" x="0px" y="0px"
	 width="100%" viewBox="0 0 695 305" enable-background="new 0 0 695 305" xml:space="preserve">

<path fill="#058CFF" opacity="1.000000" stroke="none" 
	d="
M178.903305,117.922173 
	C179.275574,115.861336 179.647827,113.800507 180.361588,111.228622 
	C180.439819,109.117798 180.176575,107.518028 179.913315,105.918251 
	C179.941681,105.515648 179.970047,105.113052 179.871613,104.118073 
	C175.247726,103.305748 170.744003,102.815208 166.255081,102.925934 
	C158.504974,103.117096 150.765579,103.714081 143.018616,104.074821 
	C139.656006,104.231400 138.636154,102.261963 139.145996,99.277557 
	C139.954102,94.547188 140.913193,89.842445 141.705536,85.109634 
	C142.209061,82.101967 143.972229,81.162888 146.877380,80.932510 
	C151.947647,80.530418 156.983566,79.695267 162.483719,79.037842 
	C165.640427,79.002129 168.347290,78.970200 171.444336,78.955643 
	C173.560150,78.652931 175.285812,78.332855 177.477325,78.005066 
	C184.406570,77.653954 190.879211,77.431793 197.331253,76.939697 
	C207.913208,76.132629 218.467972,74.893272 229.060394,74.322701 
	C237.625763,73.861320 246.229721,74.116478 254.816559,74.053787 
	C254.620407,77.124786 254.424255,80.195793 253.885208,83.380386 
	C253.400101,82.339470 253.257874,81.184952 253.115662,80.030426 
	C251.671280,83.733780 250.663910,87.399887 250.132126,91.133720 
	C249.556183,95.177719 247.417145,96.842102 243.456680,96.976303 
	C237.322067,97.184166 231.185791,97.528885 225.073639,98.076691 
	C223.645432,98.204697 222.311096,99.380302 220.933578,100.073914 
	C220.227829,100.051727 219.522079,100.029549 218.070923,99.939560 
	C214.438156,99.418922 211.345169,97.448242 208.764786,101.265808 
	C208.321671,102.693855 208.114136,103.855804 207.736359,105.172363 
	C207.356094,105.554008 207.184677,105.807159 207.030670,106.494682 
	C206.948608,108.275719 206.887711,109.648521 206.663971,111.176224 
	C206.304153,111.563324 206.155167,111.823059 206.040131,112.525909 
	C204.644897,121.616798 203.263672,130.292099 201.680740,139.291626 
	C199.011505,153.099503 196.543976,166.583145 194.042740,180.476624 
	C191.984802,190.732391 189.960556,200.578308 187.482086,210.524200 
	C183.241150,210.701538 179.454742,210.811920 175.667618,210.850296 
	C162.839951,210.980301 164.913727,211.199905 165.009430,199.979980 
	C164.999374,200.005112 164.977219,200.054474 165.183914,199.745087 
	C165.631927,197.954987 165.873230,196.474289 166.319351,194.663330 
	C167.166824,190.906464 167.894928,187.493301 168.436005,184.050735 
	C170.009674,174.038864 171.508453,164.015228 173.015732,154.000702 
	C172.994858,154.005203 173.017960,154.039566 173.221741,153.800156 
	C173.603287,152.570114 173.781036,151.579498 173.958786,150.588867 
	C173.728088,150.552994 173.497391,150.517120 173.266693,150.481232 
	C173.163254,151.304382 173.059830,152.127518 172.755768,152.740677 
	C172.326553,152.002960 172.097977,151.475235 171.869400,150.947510 
	C171.990021,149.427567 172.110641,147.907639 172.898529,146.056274 
	C174.690552,142.592026 176.296829,139.539612 176.836243,136.309067 
	C177.850510,130.234406 178.248871,124.056908 178.903305,117.922173 
M182.292267,104.168701 
	C182.106720,104.035721 181.921158,103.902748 181.735611,103.769760 
	C181.853287,103.965057 181.970963,104.160347 182.292267,104.168701 
z"/>
<path fill="#068BFF" opacity="1.000000" stroke="none" 
	d="
M467.163849,179.006805 
	C467.163849,179.006805 467.014038,178.532730 467.117065,178.081894 
	C466.595642,177.267715 465.633362,176.439850 465.397736,176.611206 
	C462.222504,178.920227 458.828979,181.024643 458.991455,185.816574 
	C459.181122,191.409882 458.839478,197.022827 459.078094,202.612305 
	C459.232727,206.234116 458.733002,209.413010 455.510040,211.967499 
	C448.679749,211.206558 441.734894,214.045090 436.053406,208.460266 
	C436.033081,171.432861 436.045807,134.867218 435.984985,98.301712 
	C435.981506,96.224419 435.374908,94.148125 435.075012,92.008408 
	C435.100952,91.945457 435.032318,91.827820 435.032318,91.827820 
	C435.928284,91.225441 436.819153,90.110352 437.721069,90.101334 
	C445.339722,90.025192 452.960419,90.151062 460.805481,90.812256 
	C461.030457,91.408279 461.016571,91.867836 460.674622,92.070244 
	C459.897400,93.971703 459.140015,95.660721 459.086700,97.371674 
	C458.920837,102.695869 459.018890,108.028381 459.019928,113.357666 
	C459.022217,125.015465 458.999969,136.673401 459.054352,148.330948 
	C459.065918,150.805649 458.769745,153.894394 463.279327,151.954956 
	C466.035583,148.848038 468.481415,145.908112 470.989319,143.022079 
	C477.300140,135.759674 483.638977,128.521576 490.437286,121.223022 
	C498.278717,121.127373 505.649506,121.082413 513.016357,121.005730 
	C513.012512,120.974007 512.950745,120.990257 512.941406,121.235893 
	C512.932007,121.481529 513.026428,121.963989 512.968750,122.315376 
	C511.438263,124.794556 509.899384,126.880234 508.508636,129.060425 
	C506.620575,132.020172 504.845886,135.052277 503.022583,138.053345 
	C503.022583,138.053345 503.004425,137.999008 502.685669,138.049789 
	C497.576599,143.521912 492.980408,149.133301 487.925995,154.296097 
	C484.693512,157.597885 484.895538,160.308624 487.361328,163.841934 
	C493.240265,172.265900 498.816315,180.900497 504.615051,189.381439 
	C508.907501,195.659409 513.357849,201.829437 517.748047,208.324890 
	C517.511841,209.290527 517.265381,209.978836 516.552002,210.743362 
	C508.381439,210.756439 500.677826,210.693298 492.790710,210.372070 
	C489.934113,206.562683 487.293701,202.986145 484.580505,199.465744 
	C480.076050,193.621277 475.524780,187.812866 470.645569,181.997894 
	C469.834625,182.028915 469.371307,182.051346 468.907990,182.073761 
	C468.907990,182.073761 468.997406,182.008759 468.947968,181.720062 
	C468.320312,180.623184 467.742096,179.814987 467.163849,179.006805 
z"/>
<path fill="#068BFF" opacity="1.000000" stroke="none" 
	d="
M226.158630,186.034805 
	C226.158630,186.034805 226.016464,185.557663 226.262146,185.187866 
	C226.008682,181.878784 225.509521,178.939484 225.003876,175.552567 
	C224.972366,172.448929 224.947327,169.792938 224.943817,166.706390 
	C224.970749,164.839355 224.976181,163.402893 225.000748,161.554184 
	C225.477600,158.092224 225.935318,155.042496 226.589966,151.720490 
	C229.886871,143.091110 233.916138,135.303696 240.988968,129.562393 
	C244.192352,126.962067 247.657623,124.684349 251.288300,122.153137 
	C252.057495,121.705162 252.542526,121.364319 253.009048,121.014526 
	C252.990555,121.005577 253.010071,121.042259 253.433228,121.056030 
	C255.987335,120.717522 258.121918,120.385857 260.248657,120.009712 
	C277.056152,117.037033 292.357513,119.704773 305.258759,131.784637 
	C306.134308,132.604431 307.802948,132.577133 309.102753,132.943802 
	C310.394653,134.701416 311.686554,136.459030 312.763672,138.503510 
	C312.558960,139.897598 312.183167,141.206314 312.639557,142.080551 
	C316.665161,149.791595 318.237457,157.914154 318.147430,166.627991 
	C317.890106,191.540421 304.124634,208.714020 279.657196,212.448868 
	C260.148682,215.426743 243.305771,210.291229 231.861786,192.788895 
	C231.191162,191.763245 229.987762,191.085953 229.032288,190.246552 
	C228.697952,189.708328 228.363617,189.170105 228.197830,188.067642 
	C227.630463,187.013870 226.894547,186.524338 226.158630,186.034805 
M259.005859,188.983475 
	C259.005859,188.983475 259.009491,188.906494 259.172729,189.573624 
	C260.139832,190.046219 261.106903,190.518829 261.988464,190.999359 
	C261.988464,190.999359 261.980347,190.913834 262.423096,191.558411 
	C267.582306,191.973495 272.741516,192.388580 278.621033,192.746552 
	C283.479919,191.181305 287.948578,189.089539 290.785675,183.652466 
	C293.509155,178.669754 296.842316,173.771576 293.007477,167.150253 
	C292.943237,166.431808 292.879028,165.713364 293.494690,164.691696 
	C296.449280,159.253479 292.738556,148.672501 286.998108,145.998352 
	C286.998108,145.998352 286.981903,146.051727 286.903107,145.343964 
	C286.103210,144.336411 285.460114,143.130875 284.478149,142.353195 
	C277.781586,137.049713 263.035858,139.059052 257.313782,143.268768 
	C246.372635,151.318130 246.069000,172.802155 251.939102,182.704239 
	C252.242157,183.215439 253.837326,182.960663 255.145691,183.676804 
	C256.376434,185.153091 257.607208,186.629364 258.485413,188.173218 
	C258.684570,188.444382 258.883698,188.715530 259.005859,188.983475 
z"/>
<path fill="#068CFF" opacity="1.000000" stroke="none" 
	d="
M384.997345,118.825462 
	C385.753510,118.890076 386.509705,118.954681 387.780396,119.403221 
	C392.125397,121.585136 396.039490,123.226051 399.769531,125.212578 
	C408.559296,129.893768 413.864594,137.823334 418.842529,146.472626 
	C422.285156,156.314957 422.423615,166.099396 421.684753,176.264893 
	C419.012360,186.432541 414.959229,195.374374 407.163635,202.307419 
	C396.252960,212.010956 383.152161,214.242142 369.360626,212.771790 
	C352.262817,210.948959 339.697784,202.094849 333.436920,185.825531 
	C326.947571,168.962570 328.690613,152.543442 338.165497,136.711716 
	C349.748627,122.367378 364.452301,116.952454 382.273560,119.559311 
	C383.127411,119.684212 384.087006,119.086609 384.997345,118.825462 
M354.327057,156.554459 
	C353.919617,161.973099 352.572876,167.517395 353.277740,172.787262 
	C355.555115,189.813980 367.957245,195.625793 383.423981,192.403183 
	C385.512756,191.967987 387.204681,189.628235 389.679443,187.835419 
	C391.837708,184.847229 393.995972,181.859039 396.787567,178.577850 
	C401.139862,168.235886 399.950867,158.127243 394.604706,148.660553 
	C390.357452,141.139832 380.520142,137.608643 371.609375,139.442764 
	C361.930695,141.434937 356.205750,147.047623 354.327057,156.554459 
z"/>
<path fill="#0157FD" opacity="1.000000" stroke="none" 
	d="
M337.977417,136.985535 
	C328.690613,152.543442 326.947571,168.962570 333.436920,185.825531 
	C339.697784,202.094849 352.262817,210.948959 369.360626,212.771790 
	C383.152161,214.242142 396.252960,212.010956 407.163635,202.307419 
	C414.959229,195.374374 419.012360,186.432541 421.990936,176.296738 
	C422.696228,176.036911 422.899658,176.056961 423.103058,176.077026 
	C422.557068,188.807480 415.734650,198.164154 406.398560,205.814789 
	C394.494202,215.570084 380.588928,215.835342 365.970551,214.310486 
	C357.259491,213.401810 349.999481,209.849854 343.740356,204.844269 
	C336.282104,198.879700 331.313812,190.589676 329.024597,181.026581 
	C328.762634,179.932327 328.366333,178.870270 328.283813,177.069427 
	C328.408600,169.539825 328.281952,162.734085 328.155273,155.928345 
	C330.543243,149.350616 332.931213,142.772873 335.884827,136.165466 
	C336.959442,136.419037 337.468414,136.702286 337.977417,136.985535 
z"/>
<path fill="#0155FD" opacity="1.000000" stroke="none" 
	d="
M229.018707,190.623474 
	C229.987762,191.085953 231.191162,191.763245 231.861786,192.788895 
	C243.305771,210.291229 260.148682,215.426743 279.657196,212.448868 
	C304.124634,208.714020 317.890106,191.540421 318.147430,166.627991 
	C318.237457,157.914154 316.665161,149.791595 312.639557,142.080551 
	C312.183167,141.206314 312.558960,139.897598 312.796387,138.848145 
	C317.401154,145.522110 319.458527,152.697083 320.179932,160.690002 
	C321.371979,173.897461 318.836029,185.874893 311.059326,196.552002 
	C304.079742,206.134705 295.234344,212.661530 282.865875,214.151428 
	C272.947754,215.346146 263.143890,215.823563 253.598251,212.915329 
	C242.867859,209.646103 235.069717,202.304733 229.097137,192.971649 
	C228.789902,192.491562 229.023407,191.665436 229.018707,190.623474 
z"/>
<path fill="#066FFD" opacity="1.000000" stroke="none" 
	d="
M171.054169,78.938271 
	C168.347290,78.970200 165.640427,79.002129 162.362885,78.799316 
	C161.535278,78.098434 161.278320,77.632294 161.021362,77.166153 
	C177.580261,76.109291 194.155472,75.255562 210.692719,73.928772 
	C223.053696,72.937050 235.359756,71.274818 247.703995,70.049522 
	C250.575577,69.764496 253.842316,69.290642 254.882996,73.667221 
	C246.229721,74.116478 237.625763,73.861320 229.060394,74.322701 
	C218.467972,74.893272 207.913208,76.132629 197.331253,76.939697 
	C190.879211,77.431793 184.406570,77.653954 177.204803,77.811157 
	C174.662338,78.062737 172.858261,78.500504 171.054169,78.938271 
z"/>
<path fill="#035FFE" opacity="1.000000" stroke="none" 
	d="
M517.737854,208.047546 
	C513.357849,201.829437 508.907501,195.659409 504.615051,189.381439 
	C498.816315,180.900497 493.240265,172.265900 487.361328,163.841934 
	C484.895538,160.308624 484.693512,157.597885 487.925995,154.296097 
	C492.980408,149.133301 497.576599,143.521912 502.712677,138.059326 
	C501.553040,140.337143 500.210724,142.784409 498.508881,144.949020 
	C494.774353,149.699036 490.857849,154.306000 487.231079,158.709824 
	C493.898407,168.885666 500.377197,178.933411 507.033661,188.862061 
	C510.115387,193.458725 513.790344,197.669250 516.713501,202.355972 
	C518.248169,204.816498 518.741150,207.926743 519.340027,210.588715 
	C518.562988,209.638412 518.150391,208.842972 517.737854,208.047546 
z"/>
<path fill="#036AFD" opacity="1.000000" stroke="none" 
	d="
M160.597244,77.112610 
	C161.278320,77.632294 161.535278,78.098434 161.913055,78.803101 
	C156.983566,79.695267 151.947647,80.530418 146.877380,80.932510 
	C143.972229,81.162888 142.209061,82.101967 141.705536,85.109634 
	C140.913193,89.842445 139.954102,94.547188 139.145996,99.277557 
	C138.636154,102.261963 139.656006,104.231400 143.018616,104.074821 
	C150.765579,103.714081 158.504974,103.117096 166.255081,102.925934 
	C170.744003,102.815208 175.247726,103.305748 179.850815,103.815536 
	C167.317413,104.879128 154.670410,105.550468 142.042709,106.482857 
	C137.695145,106.803871 135.572861,105.566513 136.090271,101.350685 
	C136.881134,94.906586 137.790237,88.393753 139.656677,82.214424 
	C140.234726,80.300690 143.945007,78.654907 146.471573,78.157181 
	C150.937546,77.277390 155.595520,77.372185 160.597244,77.112610 
z"/>
<path fill="#035FFE" opacity="1.000000" stroke="none" 
	d="
M503.380066,138.026306 
	C504.845886,135.052277 506.620575,132.020172 508.508636,129.060425 
	C509.899384,126.880234 511.438263,124.794556 513.052246,122.199875 
	C513.292480,121.438889 513.211548,121.191315 512.950745,120.990257 
	C512.950745,120.990257 513.012512,120.974007 512.664551,120.785202 
	C504.866577,120.822159 497.416595,121.047935 489.966614,121.273712 
	C483.638977,128.521576 477.300140,135.759674 470.989319,143.022079 
	C468.481415,145.908112 466.035583,148.848038 463.255249,151.620148 
	C462.925018,151.255325 462.901031,151.033768 462.878784,150.589355 
	C462.880463,150.366486 462.933136,149.923889 462.933136,149.923889 
	C465.630035,146.198196 468.134033,142.312241 471.066498,138.782272 
	C476.182129,132.624313 481.561646,126.685539 486.830719,120.655045 
	C486.940338,120.529587 487.049194,120.299744 487.163239,120.296646 
	C496.119629,120.053276 505.076843,119.768997 514.032104,119.818405 
	C514.385620,119.820358 515.610107,123.672607 514.915405,124.613449 
	C511.468658,129.281540 507.513550,133.574295 503.380066,138.026306 
z"/>
<path fill="#036AFD" opacity="1.000000" stroke="none" 
	d="
M225.010345,176.000198 
	C225.509521,178.939484 226.008682,181.878784 226.217194,184.943024 
	C221.194122,172.371292 221.481171,159.685959 225.973145,146.995392 
	C230.565720,134.020584 239.493423,125.155693 251.898392,119.585320 
	C252.622086,119.260361 253.452682,119.173500 254.427765,119.143456 
	C254.084671,119.888145 253.547379,120.465202 253.010071,121.042267 
	C253.010071,121.042259 252.990555,121.005577 252.713043,121.085587 
	C251.958389,121.530487 251.481247,121.895386 251.004105,122.260284 
	C247.657623,124.684349 244.192352,126.962067 240.988968,129.562393 
	C233.916138,135.303696 229.886871,143.091110 226.289688,151.979004 
	C225.522202,155.662003 225.251907,158.814209 224.981598,161.966415 
	C224.976181,163.402893 224.970749,164.839355 224.750488,167.023193 
	C224.693878,170.513763 224.852112,173.256973 225.010345,176.000198 
z"/>
<path fill="#025AFD" opacity="1.000000" stroke="none" 
	d="
M517.748047,208.324890 
	C518.150391,208.842972 518.562988,209.638412 519.007446,210.778992 
	C517.649353,211.748703 516.285706,212.829178 514.864136,212.911774 
	C510.711914,213.153000 506.449066,212.453995 502.388641,213.109161 
	C494.214417,214.428116 489.007538,210.914917 484.771179,204.373886 
	C480.442383,197.690140 475.610626,191.332092 470.988953,184.122513 
	C470.983643,182.938812 470.988434,182.464050 470.993195,181.989288 
	C475.524780,187.812866 480.076050,193.621277 484.580505,199.465744 
	C487.293701,202.986145 489.934113,206.562683 493.105042,210.678162 
	C498.708679,211.509308 503.814911,211.973618 508.920166,211.963135 
	C511.620636,211.957596 514.319458,211.125870 517.018982,210.667145 
	C517.265381,209.978836 517.511841,209.290527 517.748047,208.324890 
z"/>
<path fill="#0155FD" opacity="1.000000" stroke="none" 
	d="
M434.931274,210.110458 
	C434.620392,208.915710 434.039307,207.721313 434.037842,206.526184 
	C433.992279,169.110977 434.001801,131.695694 434.016510,94.280441 
	C434.016754,93.625679 434.183746,92.970978 434.652649,92.072037 
	C435.032318,91.827820 435.100952,91.945457 435.065704,92.471252 
	C435.063080,131.927948 435.095703,170.858856 435.077087,209.868744 
	C435.025879,209.947708 434.931274,210.110458 434.931274,210.110458 
z"/>
<path fill="#0155FD" opacity="1.000000" stroke="none" 
	d="
M253.433228,121.056030 
	C253.547379,120.465202 254.084671,119.888145 254.806946,119.079041 
	C256.405701,118.557030 257.819489,118.267059 260.081726,117.944000 
	C267.958588,117.899246 274.987000,117.887581 282.015411,117.875916 
	C284.402771,118.254845 286.790131,118.633781 289.621582,119.261215 
	C290.419800,119.657288 290.773926,119.804848 291.128082,119.952408 
	C298.184845,122.424438 303.882721,126.841995 308.970459,132.633148 
	C307.802948,132.577133 306.134308,132.604431 305.258759,131.784637 
	C292.357513,119.704773 277.056152,117.037033 260.248657,120.009712 
	C258.121918,120.385857 255.987335,120.717522 253.433228,121.056030 
z"/>
<path fill="#066FFD" opacity="1.000000" stroke="none" 
	d="
M221.164490,100.423340 
	C222.311096,99.380302 223.645432,98.204697 225.073639,98.076691 
	C231.185791,97.528885 237.322067,97.184166 243.456680,96.976303 
	C247.417145,96.842102 249.556183,95.177719 250.132126,91.133720 
	C250.663910,87.399887 251.671280,83.733780 253.115662,80.030426 
	C253.257874,81.184952 253.400101,82.339470 253.693542,83.753448 
	C253.216217,87.648949 253.109695,91.497711 251.749481,94.835594 
	C251.016724,96.633728 248.248276,98.462929 246.205200,98.715393 
	C237.976181,99.732246 229.671890,100.140007 221.164490,100.423340 
z"/>
<path fill="#035FFE" opacity="1.000000" stroke="none" 
	d="
M194.076447,180.066803 
	C196.543976,166.583145 199.011505,153.099503 201.982803,139.311264 
	C202.687271,139.018295 202.887985,139.029922 203.088684,139.041534 
	C201.798828,146.546494 200.444199,154.041077 199.237091,161.559311 
	C198.000092,169.263672 196.907486,176.991226 195.387421,184.535721 
	C194.707596,182.930817 194.392029,181.498810 194.076447,180.066803 
z"/>
<path fill="#024CFD" opacity="1.000000" stroke="none" 
	d="
M338.165497,136.711716 
	C337.468414,136.702286 336.959442,136.419037 336.200287,135.987061 
	C342.665985,127.057854 351.180786,120.521538 362.098083,118.671143 
	C369.394348,117.434502 377.038910,118.252739 384.762451,118.488434 
	C384.087006,119.086609 383.127411,119.684212 382.273560,119.559311 
	C364.452301,116.952454 349.748627,122.367378 338.165497,136.711716 
z"/>
<path fill="#025AFD" opacity="1.000000" stroke="none" 
	d="
M418.764435,146.086533 
	C413.864594,137.823334 408.559296,129.893768 399.769531,125.212578 
	C396.039490,123.226051 392.125397,121.585136 388.154358,119.475151 
	C399.942383,120.013268 408.134460,126.955292 414.952789,135.936615 
	C417.161835,138.846436 418.832184,142.165222 420.448547,145.655853 
	C419.686890,146.038696 419.225647,146.062622 418.764435,146.086533 
z"/>
<path fill="#036AFD" opacity="1.000000" stroke="none" 
	d="
M455.975403,211.961212 
	C458.733002,209.413010 459.232727,206.234116 459.078094,202.612305 
	C458.839478,197.022827 459.181122,191.409882 458.991455,185.816574 
	C458.828979,181.024643 462.222504,178.920227 465.397736,176.611206 
	C465.633362,176.439850 466.595642,177.267715 467.059570,177.840042 
	C465.496155,179.304596 464.093292,180.560165 462.171997,182.275696 
	C461.471649,191.840439 461.289703,200.945206 461.107727,210.049988 
	C459.960052,211.013199 458.812378,211.976425 457.176514,212.725006 
	C456.463593,212.310501 456.225983,212.127441 455.975403,211.961212 
z"/>
<path fill="#0155FD" opacity="1.000000" stroke="none" 
	d="
M173.036606,153.996201 
	C171.508453,164.015228 170.009674,174.038864 168.436005,184.050735 
	C167.894928,187.493301 167.166824,190.906464 166.111176,194.813416 
	C165.458679,195.535202 165.219177,195.776627 164.775085,196.002563 
	C164.570480,195.987061 164.161591,195.952301 164.161591,195.952301 
	C165.017670,191.558212 165.873734,187.164139 167.114487,182.201721 
	C167.389450,180.750000 167.279724,179.866608 167.169998,178.983215 
	C167.452469,176.606003 167.734955,174.228806 168.412964,171.269592 
	C169.211090,168.720184 169.613663,166.752777 170.016251,164.785355 
	C170.016251,164.785355 170.010300,164.429169 170.216400,164.068451 
	C170.336365,163.132919 170.250244,162.558121 170.164108,161.983307 
	C170.408630,161.181305 170.653152,160.379303 171.199570,158.975189 
	C172.013184,156.914108 172.524902,155.455154 173.036606,153.996201 
z"/>
<path fill="#003BFE" opacity="1.000000" stroke="none" 
	d="
M165.019485,199.954865 
	C164.913727,211.199905 162.839951,210.980301 175.667618,210.850296 
	C179.454742,210.811920 183.241150,210.701538 187.504288,210.957260 
	C187.995865,211.575409 188.011047,211.860443 188.026245,212.145508 
	C180.522354,212.367111 172.991409,213.039841 165.527695,212.591919 
	C162.473022,212.408585 160.960159,209.237381 163.118866,205.224365 
	C164.038223,203.064377 164.528854,201.509628 165.019485,199.954865 
z"/>
<path fill="#025AFD" opacity="1.000000" stroke="none" 
	d="
M188.408600,212.076721 
	C188.011047,211.860443 187.995865,211.575409 187.958496,210.857300 
	C189.960556,200.578308 191.984802,190.732391 194.042740,180.476624 
	C194.392029,181.498810 194.707596,182.930817 195.036774,184.745285 
	C193.734756,192.983841 192.491425,200.853455 191.027390,208.681793 
	C190.801849,209.887741 189.561829,210.903961 188.408600,212.076721 
z"/>
<path fill="#036AFD" opacity="1.000000" stroke="none" 
	d="
M178.559845,118.095711 
	C178.248871,124.056908 177.850510,130.234406 176.836243,136.309067 
	C176.296829,139.539612 174.690552,142.592026 173.219742,145.851196 
	C174.654572,136.741440 176.435471,127.505341 178.559845,118.095711 
z"/>
<path fill="#068BFF" opacity="1.000000" stroke="none" 
	d="
M462.548218,149.730103 
	C462.933136,149.923889 462.880463,150.366486 462.545929,150.445160 
	C461.816620,148.493896 461.090057,146.465775 461.079163,144.433807 
	C460.985107,126.912209 461.020081,109.389915 461.016571,91.867836 
	C461.016571,91.867836 461.030457,91.408279 461.040924,91.178932 
	C461.365295,92.630463 461.941254,94.309563 461.952728,95.992508 
	C462.074524,113.840096 462.106567,131.688293 462.548218,149.730103 
z"/>
<path fill="#0155FD" opacity="1.000000" stroke="none" 
	d="
M203.425140,138.826294 
	C202.887985,139.029922 202.687271,139.018295 202.184509,138.987045 
	C203.263672,130.292099 204.644897,121.616798 206.230896,112.728958 
	C206.902222,113.335434 207.368790,114.154442 207.835327,114.973450 
	C206.477432,122.852661 205.119522,130.731857 203.425140,138.826294 
z"/>
<path fill="#0155FD" opacity="1.000000" stroke="none" 
	d="
M418.842529,146.472626 
	C419.225647,146.062622 419.686890,146.038696 420.492371,146.007004 
	C421.795990,149.413177 422.755310,152.827148 423.588501,156.989929 
	C423.349854,163.835815 423.237335,169.932907 423.124817,176.029984 
	C423.124817,176.029984 423.119049,176.054932 423.111053,176.065979 
	C422.899658,176.056961 422.696228,176.036911 422.186646,175.985016 
	C422.423615,166.099396 422.285156,156.314957 418.842529,146.472626 
z"/>
<path fill="#066FFD" opacity="1.000000" stroke="none" 
	d="
M207.904999,114.569153 
	C207.368790,114.154442 206.902222,113.335434 206.244904,112.313370 
	C206.155167,111.823059 206.304153,111.563324 206.894562,110.915543 
	C207.209290,109.028793 207.130569,107.557617 207.051849,106.086449 
	C207.184677,105.807159 207.356094,105.554008 207.960510,104.893936 
	C208.570068,103.307159 208.785217,102.153427 209.000366,100.999695 
	C211.345169,97.448242 214.438156,99.418922 217.718170,99.960526 
	C215.718979,100.982300 213.327118,101.915283 210.479111,103.026192 
	C209.773361,106.165031 208.874008,110.164948 207.904999,114.569153 
z"/>
<path fill="#068BFF" opacity="1.000000" stroke="none" 
	d="
M281.796631,117.534409 
	C274.987000,117.887581 267.958588,117.899246 260.465515,117.884888 
	C267.101959,114.682472 274.353912,116.391663 281.796631,117.534409 
z"/>
<path fill="#024CFD" opacity="1.000000" stroke="none" 
	d="
M455.510040,211.967499 
	C456.225983,212.127441 456.463593,212.310501 456.845123,212.671753 
	C450.950592,212.890854 444.896027,213.069656 438.850433,212.909668 
	C437.556366,212.875427 436.294861,211.613052 434.974792,210.513458 
	C434.931274,210.110458 435.025879,209.947708 435.255432,209.752106 
	C435.704468,209.367493 435.899658,209.156006 436.070526,208.922073 
	C441.734894,214.045090 448.679749,211.206558 455.510040,211.967499 
z"/>
<path fill="#068BFF" opacity="1.000000" stroke="none" 
	d="
M461.463928,209.802490 
	C461.289703,200.945206 461.471649,191.840439 461.875549,182.392609 
	C462.005066,191.218033 461.912598,200.386505 461.463928,209.802490 
z"/>
<path fill="#068BFF" opacity="1.000000" stroke="none" 
	d="
M328.076355,156.358154 
	C328.281952,162.734085 328.408600,169.539825 328.346497,176.687500 
	C328.104279,170.282272 328.050842,163.535126 328.076355,156.358154 
z"/>
<path fill="#058CFF" opacity="1.000000" stroke="none" 
	d="
M423.465942,175.805939 
	C423.237335,169.932907 423.349854,163.835815 423.649933,157.372849 
	C423.827332,163.198608 423.817169,169.390259 423.465942,175.805939 
z"/>
<path fill="#058CFF" opacity="1.000000" stroke="none" 
	d="
M165.009430,199.979980 
	C164.528854,201.509628 164.038223,203.064377 163.347565,204.925644 
	C163.364090,202.393509 163.580658,199.554871 163.979401,196.334259 
	C164.161591,195.952301 164.570480,195.987061 164.791412,196.405624 
	C165.000626,197.900955 164.988922,198.977707 164.977219,200.054474 
	C164.977219,200.054474 164.999374,200.005112 165.009430,199.979980 
z"/>
<path fill="#036AFD" opacity="1.000000" stroke="none" 
	d="
M179.594528,106.090919 
	C180.176575,107.518028 180.439819,109.117798 180.430328,110.832718 
	C179.863632,109.386436 179.569687,107.825012 179.594528,106.090919 
z"/>
<path fill="#036AFD" opacity="1.000000" stroke="none" 
	d="
M173.015732,154.000702 
	C172.524902,155.455154 172.013184,156.914108 171.334564,158.663437 
	C171.173584,156.434525 171.179489,153.915222 171.527390,151.171722 
	C172.097977,151.475235 172.326553,152.002960 172.775497,153.012878 
	C173.003235,153.676590 173.010590,153.858078 173.017960,154.039566 
	C173.017960,154.039566 172.994858,154.005203 173.015732,154.000702 
z"/>
<path fill="#058CFF" opacity="1.000000" stroke="none" 
	d="
M169.685730,164.989563 
	C169.613663,166.752777 169.211090,168.720184 168.484772,170.866241 
	C168.559097,169.094513 168.957153,167.144150 169.685730,164.989563 
z"/>
<path fill="#036AFD" opacity="1.000000" stroke="none" 
	d="
M467.093933,179.330582 
	C467.742096,179.814987 468.320312,180.623184 468.908813,181.759308 
	C468.287384,181.276276 467.655701,180.465332 467.093933,179.330582 
z"/>
<path fill="#036AFD" opacity="1.000000" stroke="none" 
	d="
M226.182617,186.342514 
	C226.894547,186.524338 227.630463,187.013870 228.263245,187.727936 
	C227.508926,187.518387 226.857758,187.084305 226.182617,186.342514 
z"/>
<path fill="#036AFD" opacity="1.000000" stroke="none" 
	d="
M470.645569,181.997894 
	C470.988434,182.464050 470.983643,182.938812 470.969116,183.769501 
	C470.346497,183.627960 469.733612,183.130524 469.014343,182.353424 
	C469.371307,182.051346 469.834625,182.028915 470.645569,181.997894 
z"/>
<path fill="#058CFF" opacity="1.000000" stroke="none" 
	d="
M167.102615,179.368805 
	C167.279724,179.866608 167.389450,180.750000 167.327301,181.865814 
	C167.115372,181.316956 167.075302,180.535690 167.102615,179.368805 
z"/>
<path fill="#068BFF" opacity="1.000000" stroke="none" 
	d="
M291.023010,119.705124 
	C290.773926,119.804848 290.419800,119.657288 290.023560,119.336212 
	C290.293610,119.261078 290.605774,119.359459 291.023010,119.705124 
z"/>
<path fill="#058CFF" opacity="1.000000" stroke="none" 
	d="
M170.099976,162.333710 
	C170.250244,162.558121 170.336365,163.132919 170.287964,163.905334 
	C170.114243,163.630005 170.075043,163.157074 170.099976,162.333710 
z"/>
<path fill="#036AFD" opacity="1.000000" stroke="none" 
	d="
M171.444336,78.955643 
	C172.858261,78.500504 174.662338,78.062737 176.738953,77.818878 
	C175.285812,78.332855 173.560150,78.652931 171.444336,78.955643 
z"/>
<path fill="#0155FD" opacity="1.000000" stroke="none" 
	d="
M207.030670,106.494682 
	C207.130569,107.557617 207.209290,109.028793 207.057404,110.760643 
	C206.887711,109.648521 206.948608,108.275719 207.030670,106.494682 
z"/>
<path fill="#0155FD" opacity="1.000000" stroke="none" 
	d="
M173.221741,153.800156 
	C173.010590,153.858078 173.003235,153.676590 172.976135,153.222870 
	C173.059830,152.127518 173.163254,151.304382 173.266693,150.481232 
	C173.497391,150.517120 173.728088,150.552994 173.958786,150.588867 
	C173.781036,151.579498 173.603287,152.570114 173.221741,153.800156 
z"/>
<path fill="#003BFE" opacity="1.000000" stroke="none" 
	d="
M165.183914,199.745087 
	C164.988922,198.977707 165.000626,197.900955 164.996002,196.421127 
	C165.219177,195.776627 165.458679,195.535202 165.906372,195.143677 
	C165.873230,196.474289 165.631927,197.954987 165.183914,199.745087 
z"/>
<path fill="#036AFD" opacity="1.000000" stroke="none" 
	d="
M182.190460,104.262169 
	C181.970963,104.160347 181.853287,103.965057 181.735611,103.769760 
	C181.921158,103.902748 182.106720,104.035721 182.190460,104.262169 
z"/>
<path fill="#0155FD" opacity="1.000000" stroke="none" 
	d="
M208.764786,101.265808 
	C208.785217,102.153427 208.570068,103.307159 208.130768,104.739319 
	C208.114136,103.855804 208.321671,102.693855 208.764786,101.265808 
z"/>
<path fill="#036AFD" opacity="1.000000" stroke="none" 
	d="
M460.674622,92.070244 
	C461.020081,109.389915 460.985107,126.912209 461.079163,144.433807 
	C461.090057,146.465775 461.816620,148.493896 462.544250,150.668015 
	C462.901031,151.033768 462.925018,151.255325 462.973083,151.811676 
	C458.769745,153.894394 459.065918,150.805649 459.054352,148.330948 
	C458.999969,136.673401 459.022217,125.015465 459.019928,113.357666 
	C459.018890,108.028381 458.920837,102.695869 459.086700,97.371674 
	C459.140015,95.660721 459.897400,93.971703 460.674622,92.070244 
z"/>
<path fill="#003BFE" opacity="1.000000" stroke="none" 
	d="
M436.053406,208.460266 
	C435.899658,209.156006 435.704468,209.367493 435.306671,209.673141 
	C435.095703,170.858856 435.063080,131.927948 435.039734,92.534210 
	C435.374908,94.148125 435.981506,96.224419 435.984985,98.301712 
	C436.045807,134.867218 436.033081,171.432861 436.053406,208.460266 
z"/>
<path fill="#003BFE" opacity="1.000000" stroke="none" 
	d="
M516.552002,210.743362 
	C514.319458,211.125870 511.620636,211.957596 508.920166,211.963135 
	C503.814911,211.973618 498.708679,211.509308 493.288574,210.936234 
	C500.677826,210.693298 508.381439,210.756439 516.552002,210.743362 
z"/>
<path fill="#003BFE" opacity="1.000000" stroke="none" 
	d="
M490.437256,121.223022 
	C497.416595,121.047935 504.866577,120.822159 512.668457,120.816925 
	C505.649506,121.082413 498.278717,121.127373 490.437256,121.223022 
z"/>
<path fill="#003BFE" opacity="1.000000" stroke="none" 
	d="
M512.941406,121.235893 
	C513.211548,121.191315 513.292480,121.438889 513.109924,121.848480 
	C513.026428,121.963989 512.932007,121.481529 512.941406,121.235893 
z"/>
<path fill="#035FFE" opacity="1.000000" stroke="none" 
	d="
M286.942505,145.697845 
	C283.422363,144.691528 279.948273,143.015167 276.288452,142.025970 
	C260.615814,137.789978 250.294891,150.317047 251.018539,163.165970 
	C251.387680,169.720306 249.197708,176.801514 254.803207,182.703186 
	C253.837326,182.960663 252.242157,183.215439 251.939102,182.704239 
	C246.069000,172.802155 246.372635,151.318130 257.313782,143.268768 
	C263.035858,139.059052 277.781586,137.049713 284.478149,142.353195 
	C285.460114,143.130875 286.103210,144.336411 286.942505,145.697845 
z"/>
<path fill="#035FFE" opacity="1.000000" stroke="none" 
	d="
M293.154755,164.843307 
	C292.399139,162.355148 292.328857,159.598572 291.485077,157.103607 
	C290.286499,153.559647 288.518829,150.208176 286.970215,146.396530 
	C292.738556,148.672501 296.449280,159.253479 293.154755,164.843307 
z"/>
<path fill="#035FFE" opacity="1.000000" stroke="none" 
	d="
M287.856781,183.937622 
	C292.009369,179.492645 291.518799,173.735931 292.619873,168.101898 
	C296.842316,173.771576 293.509155,178.669754 290.125519,183.846008 
	C288.929169,184.005585 288.392975,183.971603 287.856781,183.937622 
z"/>
<path fill="#025AFD" opacity="1.000000" stroke="none" 
	d="
M287.552185,184.105927 
	C288.392975,183.971603 288.929169,184.005585 289.871033,184.074356 
	C287.948578,189.089539 283.479919,191.181305 278.286163,192.503586 
	C277.966522,191.895370 277.981750,191.530106 277.996979,191.164856 
	C281.080536,188.867981 284.164093,186.571106 287.552185,184.105927 
z"/>
<path fill="#003BFE" opacity="1.000000" stroke="none" 
	d="
M277.561340,191.095840 
	C277.981750,191.530106 277.966522,191.895370 277.926025,192.532135 
	C272.741516,192.388580 267.582306,191.973495 262.201721,191.236115 
	C267.028809,190.951508 272.077240,190.989166 277.561340,191.095840 
z"/>
<path fill="#024CFD" opacity="1.000000" stroke="none" 
	d="
M225.000763,161.554184 
	C225.251907,158.814209 225.522202,155.662003 226.092743,152.251282 
	C225.935318,155.042496 225.477600,158.092224 225.000763,161.554184 
z"/>
<path fill="#024CFD" opacity="1.000000" stroke="none" 
	d="
M225.003876,175.552567 
	C224.852112,173.256973 224.693878,170.513763 224.728973,167.453735 
	C224.947327,169.792938 224.972366,172.448929 225.003876,175.552567 
z"/>
<path fill="#003BFE" opacity="1.000000" stroke="none" 
	d="
M259.091125,189.240051 
	C259.954590,189.392380 260.899719,189.878250 261.959412,190.677765 
	C261.106903,190.518829 260.139832,190.046219 259.091125,189.240051 
z"/>
<path fill="#0155FD" opacity="1.000000" stroke="none" 
	d="
M251.288300,122.153145 
	C251.481247,121.895386 251.958389,121.530487 252.731537,121.094543 
	C252.542526,121.364319 252.057495,121.705162 251.288300,122.153145 
z"/>
<path fill="#003BFE" opacity="1.000000" stroke="none" 
	d="
M258.661682,188.139435 
	C258.837952,188.105652 259.009491,188.532440 259.046173,188.759567 
	C258.883698,188.715530 258.684570,188.444382 258.661682,188.139435 
z"/>
<path fill="#0157FD" opacity="1.000000" stroke="none" 
	d="
M396.470886,178.724350 
	C396.098755,172.534164 396.083679,166.196793 395.978577,159.860931 
	C395.814728,149.984497 387.670990,141.877762 377.855560,142.052094 
	C373.382629,142.131546 368.959930,141.252487 364.626953,144.492493 
	C360.554199,147.537903 358.322784,151.218658 356.091309,155.840622 
	C355.217712,155.980713 354.994995,155.965210 354.772278,155.949707 
	C356.205750,147.047623 361.930695,141.434937 371.609375,139.442764 
	C380.520142,137.608643 390.357452,141.139832 394.604706,148.660553 
	C399.950867,158.127243 401.139862,168.235886 396.470886,178.724350 
z"/>
<path fill="#025AFD" opacity="1.000000" stroke="none" 
	d="
M354.549683,156.252075 
	C354.994995,155.965210 355.217712,155.980713 355.774536,156.018372 
	C356.075409,162.497528 354.843903,169.233398 356.267639,175.351349 
	C358.927704,186.781982 368.035889,192.960724 380.384216,190.243118 
	C383.040527,189.658539 385.665070,188.929413 388.692322,188.218613 
	C387.204681,189.628235 385.512756,191.967987 383.423981,192.403183 
	C367.957245,195.625793 355.555115,189.813980 353.277740,172.787262 
	C352.572876,167.517395 353.919617,161.973099 354.549683,156.252075 
z"/>
</svg>