<?xml version="1.0" encoding="UTF-8"?>
<svg version="1.1" xmlns="http://www.w3.org/2000/svg" width="814" height="337">
<path d="M0 0 C1.21157021 -0.00956978 1.21157021 -0.00956978 2.44761658 -0.01933289 C3.31640945 -0.02044571 4.18520233 -0.02155853 5.08032227 -0.02270508 C5.97662857 -0.02603348 6.87293488 -0.02936188 7.79640198 -0.03279114 C9.69189948 -0.03785322 11.5874059 -0.04019968 13.48291016 -0.04003906 C16.38206666 -0.04222527 19.28084248 -0.06038775 22.17993164 -0.0793457 C24.02172721 -0.08227982 25.8635246 -0.08426449 27.70532227 -0.08520508 C28.57209091 -0.09239059 29.43885956 -0.09957611 30.33189392 -0.10697937 C31.14275955 -0.10390274 31.95362518 -0.10082611 32.7890625 -0.09765625 C33.49949203 -0.09908127 34.20992157 -0.10050629 34.94187927 -0.10197449 C37.38900411 0.19793523 38.92171685 0.74895729 40.95922852 2.14526367 C41.98104913 5.14112435 42.09400715 7.95839432 42.1174469 11.10601807 C42.12723572 12.1043869 42.13702454 13.10275574 42.14710999 14.13137817 C42.15574318 15.76488724 42.15574318 15.76488724 42.16455078 17.43139648 C42.17445038 18.58290192 42.18434998 19.73440735 42.19454956 20.92080688 C42.22615721 24.72997984 42.25091923 28.53916527 42.27563477 32.34838867 C42.29620492 34.98826422 42.3172014 37.62813647 42.33860779 40.26800537 C42.38848857 46.50814063 42.43344448 52.74830126 42.47663015 58.98848605 C42.52604201 66.0936732 42.58094547 73.19881459 42.63630974 80.30395746 C42.75005893 94.91768286 42.85691331 109.5314538 42.95922852 124.14526367 C43.5001564 123.39837784 44.04108429 122.651492 44.59840393 121.88197327 C45.31245895 120.89772873 46.02651398 119.91348419 46.76220703 118.89941406 C47.46813492 117.92565323 48.17406281 116.9518924 48.90138245 115.94862366 C51.4864623 112.42702428 54.16858883 108.99390846 56.89672852 105.58276367 C60.23315037 101.56673261 60.23315037 101.56673261 62.95922852 97.14526367 C63.61922852 97.14526367 64.27922852 97.14526367 64.95922852 97.14526367 C65.04172852 96.56776367 65.12422852 95.99026367 65.20922852 95.39526367 C66.17548845 92.49648386 67.79341447 91.29961838 69.95922852 89.14526367 C71.38499571 87.33511182 72.77858852 85.49935503 74.14672852 83.64526367 C74.93047852 82.59467773 75.71422852 81.5440918 76.52172852 80.46166992 C78.15162699 78.25778075 79.75113083 76.03530551 81.33422852 73.79760742 C82.47891602 72.20625977 82.47891602 72.20625977 83.64672852 70.58276367 C84.3312207 69.61209961 85.01571289 68.64143555 85.72094727 67.64135742 C88.77288087 64.23789219 91.65852295 62.4282023 96.28379822 61.85939026 C99.08866155 61.73226876 101.87804512 61.70329806 104.68579102 61.71166992 C105.71102875 61.70642807 106.73626648 61.70118622 107.79257202 61.69578552 C109.95260718 61.68938016 112.11267729 61.690683 114.27270508 61.69921875 C117.58029882 61.70775353 120.88617911 61.67890558 124.19360352 61.6472168 C126.2951655 61.64560528 128.39673054 61.64618137 130.49829102 61.64916992 C131.48689117 61.63793594 132.47549133 61.62670197 133.49404907 61.61512756 C140.30001163 61.68442737 140.30001163 61.68442737 143.57397461 63.97314453 C145.70691674 67.31766095 145.60969242 69.24248022 144.95922852 73.14526367 C143.26669499 76.09171685 141.36820263 78.74253042 138.95922852 81.14526367 C138.29922852 81.14526367 137.63922852 81.14526367 136.95922852 81.14526367 C135.96922852 83.12526367 135.96922852 83.12526367 134.95922852 85.14526367 C134.29922852 85.14526367 133.63922852 85.14526367 132.95922852 85.14526367 C132.69754883 85.72405273 132.43586914 86.3028418 132.16625977 86.89916992 C130.88630112 89.28096998 129.44566797 91.06843013 127.64672852 93.08276367 C126.71086914 94.13077148 126.71086914 94.13077148 125.75610352 95.19995117 C123.55573159 97.58209295 121.25212471 99.85236748 118.95922852 102.14526367 C117.38318263 104.01142746 115.82653458 105.88994298 114.29125977 107.78979492 C113.6319043 108.46075195 113.6319043 108.46075195 112.95922852 109.14526367 C112.29922852 109.14526367 111.63922852 109.14526367 110.95922852 109.14526367 C110.6949707 109.73823242 110.43071289 110.33120117 110.15844727 110.94213867 C108.91552427 113.22555422 107.65521206 114.61953091 105.77172852 116.39526367 C101.0259154 121.00265724 96.68486431 125.90660102 92.64672852 131.14526367 C92.08985352 131.80526367 91.53297852 132.46526367 90.95922852 133.14526367 C90.29922852 133.14526367 89.63922852 133.14526367 88.95922852 133.14526367 C88.29922852 134.46526367 87.63922852 135.78526367 86.95922852 137.14526367 C86.29922852 137.14526367 85.63922852 137.14526367 84.95922852 137.14526367 C85.94922852 138.28995117 85.94922852 138.28995117 86.95922852 139.45776367 C88.95922852 142.14526367 88.95922852 142.14526367 88.95922852 145.14526367 C89.94922852 145.47526367 90.93922852 145.80526367 91.95922852 146.14526367 C93.56469727 148.14135742 93.56469727 148.14135742 95.14672852 150.58276367 C95.6765332 151.38584961 96.20633789 152.18893555 96.75219727 153.01635742 C97.95922852 155.14526367 97.95922852 155.14526367 97.95922852 157.14526367 C98.94922852 157.47526367 99.93922852 157.80526367 100.95922852 158.14526367 C100.95922852 159.13526367 100.95922852 160.12526367 100.95922852 161.14526367 C101.61922852 161.14526367 102.27922852 161.14526367 102.95922852 161.14526367 C104.17408237 162.86947794 105.30741556 164.65161251 106.39672852 166.45776367 C108.38857302 169.74882425 110.23423321 172.46053924 112.95922852 175.14526367 C114.6328514 177.35857969 116.27432045 179.58257807 117.89672852 181.83276367 C121.93448024 187.38884072 126.01533543 192.90846294 130.14672852 198.39526367 C131.62652325 200.36744986 133.10549603 202.34024968 134.58422852 204.31323242 C135.47057022 205.49418203 136.35847409 206.67396159 137.24829102 207.85229492 C138.38708956 209.36212138 139.51721026 210.87848202 140.64672852 212.39526367 C141.2693457 213.22541992 141.89196289 214.05557617 142.53344727 214.91088867 C143.95922852 217.14526367 143.95922852 217.14526367 144.47875977 219.37963867 C144.63731445 219.96229492 144.79586914 220.54495117 144.95922852 221.14526367 C145.94922852 221.47526367 146.93922852 221.80526367 147.95922852 222.14526367 C150.52877061 226.23749738 151.49461008 229.32682959 150.95922852 234.14526367 C148.95922852 237.14526367 148.95922852 237.14526367 145.95922852 238.14526367 C144.56411414 238.24078869 143.16496387 238.2833158 141.76660156 238.29052734 C140.50465218 238.30009712 140.50465218 238.30009712 139.21720886 238.30986023 C138.31094254 238.31097305 137.40467621 238.31208588 136.47094727 238.31323242 C135.53499222 238.31656082 134.59903717 238.31988922 133.63471985 238.32331848 C131.65345755 238.32838227 129.67218673 238.33072698 127.69091797 238.33056641 C124.66888237 238.33274768 121.6472149 238.35089484 118.62524414 238.36987305 C116.69881309 238.37280817 114.77238032 238.37479217 112.84594727 238.37573242 C111.94575363 238.38291794 111.04556 238.39010345 110.11808777 238.39750671 C105.35308373 238.3802748 101.39423283 238.11296431 96.95922852 236.14526367 C95.02172852 234.14526367 95.02172852 234.14526367 92.95922852 231.14526367 C92.08524414 229.95223633 92.08524414 229.95223633 91.19360352 228.73510742 C86.08357526 221.68285298 86.08357526 221.68285298 85.43969727 218.89916992 C85.28114258 218.32038086 85.12258789 217.7415918 84.95922852 217.14526367 C83.96922852 216.81526367 82.97922852 216.48526367 81.95922852 216.14526367 C80.45141602 214.06323242 80.45141602 214.06323242 78.83422852 211.33276367 C75.47695083 205.83773224 71.7506728 200.82894953 67.77954102 195.77416992 C66.15053728 193.42155293 65.36799928 191.93413518 64.95922852 189.14526367 C64.29922852 189.14526367 63.63922852 189.14526367 62.95922852 189.14526367 C61.33813477 186.87963867 61.33813477 186.87963867 59.52172852 183.89526367 C57.45764459 180.52496681 55.38822043 177.2650698 52.95922852 174.14526367 C49.72258444 174.42269031 47.99428448 175.12047211 45.32104492 177.01098633 C41.8689373 181.59214797 42.28479737 185.51401393 42.35766602 191.10620117 C42.34965973 192.17013092 42.34165344 193.23406067 42.33340454 194.33023071 C42.31034014 197.72729626 42.31979326 201.12316596 42.33422852 204.52026367 C42.33808158 207.90999675 42.33458085 211.29919939 42.31362915 214.68887329 C42.30158528 216.7957546 42.30413405 218.90278479 42.32333374 221.00961304 C42.30149659 226.77011011 42.08934505 231.20978627 38.95922852 236.14526367 C34.42869588 238.55856222 29.67213797 238.43827906 24.63891602 238.41088867 C23.46729416 238.41375885 23.46729416 238.41375885 22.27200317 238.41668701 C20.62981848 238.41804166 18.98762281 238.41439577 17.34545898 238.40600586 C14.83496094 238.3952668 12.32517369 238.4059402 9.81469727 238.41870117 C8.21443528 238.41738001 6.61417373 238.41481853 5.01391602 238.41088867 C4.26592743 238.41493713 3.51793884 238.4189856 2.74728394 238.42315674 C-4.16127345 238.36103281 -4.16127345 238.36103281 -7.04077148 236.14526367 C-10.60394443 231.60649876 -10.46501298 227.59783647 -10.42172241 222.08045959 C-10.42640238 221.16570514 -10.43108236 220.25095068 -10.43590415 219.30847639 C-10.4478732 216.24228744 -10.43838929 213.17654386 -10.42895508 210.11035156 C-10.43301995 207.91247802 -10.43836135 205.71460651 -10.44488525 203.51673889 C-10.45857542 197.5456973 -10.4532529 191.57481102 -10.443748 185.60376668 C-10.43615929 179.35786469 -10.44319491 173.11197611 -10.44790649 166.86607361 C-10.45371663 155.70331739 -10.44438526 144.54061824 -10.42912848 133.37787568 C-10.41572863 123.26067113 -10.41805068 113.14356987 -10.43188477 103.02636719 C-10.44794701 91.27417342 -10.45391101 79.52202997 -10.44504797 67.76982492 C-10.44036949 61.55009286 -10.43975142 55.33043192 -10.44965744 49.11070442 C-10.45832078 43.26251962 -10.45231654 37.41452991 -10.43497467 31.5663662 C-10.4310063 29.41934661 -10.43214985 27.27231062 -10.43876266 25.12529755 C-10.4469543 22.19566016 -10.436685 19.26664884 -10.42172241 16.33705139 C-10.42841458 15.48636662 -10.43510674 14.63568185 -10.4420017 13.75921875 C-10.3933425 8.8508842 -9.8549812 5.35385345 -7.04077148 1.14526367 C-4.34358048 0.2462 -2.7691107 0.01487428 0 0 Z " fill="#1891FE" transform="translate(596.040771484375,52.854736328125)"/>
<path d="M0 0 C1.52341302 3.04682604 0.96034296 6.12099142 0.75 9.4375 C0.70407715 10.16251709 0.6581543 10.88753418 0.61083984 11.63452148 C0.23078295 16.68905391 -0.66138278 21.29064614 -2.18359375 26.13671875 C-3.53546533 30.87797171 -4.25209555 35.75790904 -5.05859375 40.6171875 C-6.10533963 44.37852331 -7.17189275 46.31944617 -10 49 C-12.46875 49.85546875 -12.46875 49.85546875 -15.5 50.1875 C-16.74265625 50.32414062 -17.9853125 50.46078125 -19.265625 50.6015625 C-20.8433776 50.73872811 -22.42155794 50.87101035 -24 51 C-24.98162109 51.0834668 -25.96324219 51.16693359 -26.97460938 51.25292969 C-43.96336086 52.66272123 -60.96299059 53.47321464 -78 54 C-78.15855469 55.25167969 -78.31710938 56.50335938 -78.48046875 57.79296875 C-80.3816868 72.42913011 -82.83053925 86.94263774 -85.38574219 101.47705078 C-86.30530795 106.75103089 -87.18719127 112.03102043 -88.0625 117.3125 C-88.22500244 118.2917041 -88.38750488 119.2709082 -88.55493164 120.27978516 C-88.87850149 122.2309162 -89.2018278 124.18208766 -89.52490234 126.13330078 C-90.46440956 131.80220813 -91.41057155 137.47001029 -92.35742188 143.13769531 C-93.27476928 148.63292503 -94.18681373 154.12898435 -95.0914917 159.62631226 C-95.61631305 162.8131629 -96.14318501 165.99967318 -96.67022705 169.18615723 C-96.92712312 170.74240301 -97.18313815 172.29879454 -97.43817139 173.85534668 C-98.91224728 182.84943458 -100.52465042 191.79306365 -102.34594727 200.72338867 C-103.15183187 204.7606329 -103.82663359 208.80447821 -104.4375 212.875 C-104.68619524 214.47135458 -104.93489332 216.06770872 -105.18359375 217.6640625 C-105.62018693 220.50002464 -106.05018949 223.33677196 -106.47314453 226.17480469 C-106.97429583 229.53442894 -107.48689809 232.89218275 -108 236.25 C-108.2309436 237.83917236 -108.2309436 237.83917236 -108.46655273 239.46044922 C-110.14485185 250.34807758 -110.14485185 250.34807758 -113 255 C-118.24597802 257.81825182 -122.49184008 258.44706724 -128.3828125 258.3984375 C-129.16010712 258.40130768 -129.93740173 258.40417786 -130.73825073 258.40713501 C-132.37026708 258.40916435 -134.00230838 258.40371411 -135.63427734 258.39111328 C-138.12522792 258.37499853 -140.61456701 258.39102189 -143.10546875 258.41015625 C-144.69792022 258.40817447 -146.2903707 258.40433214 -147.8828125 258.3984375 C-148.62250275 258.40451019 -149.36219299 258.41058289 -150.1242981 258.4168396 C-154.61004917 258.35604724 -157.38871105 257.6732755 -161 255 C-161.59039062 254.56300781 -162.18078125 254.12601562 -162.7890625 253.67578125 C-165.65269924 249.7128775 -164.37192599 243.62675932 -164 239 C-163.4027909 235.56706333 -162.64715441 232.20385963 -161.84765625 228.8125 C-160.92918211 224.68148268 -160.25359889 220.55765165 -159.625 216.375 C-158.38724765 208.22386574 -156.96825555 200.11264192 -155.5 192 C-153.92785878 183.30186321 -152.42939542 174.6027701 -151.09155273 165.86572266 C-150.18566678 160.01513007 -149.14137524 154.19596831 -148.0625 148.375 C-146.40170923 139.40419551 -144.92092454 130.41339841 -143.50244141 121.40136719 C-142.2288976 113.34099493 -140.85326432 105.30209737 -139.43188477 97.26660156 C-138.6407736 92.7707461 -137.87563009 88.2745917 -137.1875 83.76171875 C-136.99619507 82.5075415 -136.99619507 82.5075415 -136.80102539 81.22802734 C-136.57094333 79.69919464 -136.34556994 78.16963952 -136.12670898 76.63916016 C-135.17804651 70.31814129 -133.61685115 64.18000783 -132 58 C-133.03366699 58.08564209 -134.06733398 58.17128418 -135.13232422 58.25952148 C-153.80154405 59.7926237 -172.4626076 61.19942256 -191.1875 61.8125 C-191.90846863 61.83964081 -192.62943726 61.86678162 -193.37225342 61.89474487 C-195.40792322 61.96913647 -197.44421119 62.02598861 -199.48046875 62.08203125 C-200.62410889 62.11530518 -201.76774902 62.1485791 -202.94604492 62.18286133 C-206.08809928 61.99472489 -208.20602134 61.42270271 -211 60 C-213.82747133 56.14663199 -212.98710842 52.43209627 -212.48046875 47.9140625 C-211.90283891 44.41071404 -210.93246498 41.17685096 -209.81640625 37.8125 C-208.45814736 33.1333306 -207.73995064 28.3169359 -206.94140625 23.515625 C-205.88261705 19.56164045 -204.65525685 17.11525847 -202 14 C-196.9576951 11.81677383 -191.8756613 11.42226318 -186.46484375 10.96875 C-185.08533791 10.84554382 -185.08533791 10.84554382 -183.67796326 10.71984863 C-174.55891823 9.92306097 -165.42875489 9.28568103 -156.29525757 8.68109131 C-137.97600853 7.47188132 -137.97600853 7.47188132 -119.6875 5.875 C-113.04038471 5.22266803 -106.42428282 4.80955943 -99.75 4.5625 C-89.61586147 4.18354168 -79.54739177 3.29513532 -69.45324707 2.36166382 C-57.15588754 1.22848649 -44.85862766 0.35558768 -32.52978516 -0.35327148 C-26.37018884 -0.70991348 -20.23814198 -1.1139303 -14.10498047 -1.79370117 C-3.88269123 -2.79553768 -3.88269123 -2.79553768 0 0 Z " fill="#1690FE" transform="translate(261,33)"/>
<path d="M0 0 C0.71542969 0.35835937 1.43085937 0.71671875 2.16796875 1.0859375 C8.48490259 4.41770083 14.54656952 8.38242242 20 13 C20 13.66 20 14.32 20 15 C21.98 15.99 21.98 15.99 24 17 C24 17.66 24 18.32 24 19 C24.99 19.33 25.98 19.66 27 20 C28.57140346 21.95101216 29.98358567 23.86467187 31.375 25.9375 C31.77348145 26.52289551 32.17196289 27.10829102 32.58251953 27.71142578 C35.85020563 32.59764805 38.61612467 37.6232301 41 43 C41.74056641 44.64742187 41.74056641 44.64742187 42.49609375 46.328125 C51.97446795 69.47012953 51.29969189 101.15774476 42.10693359 124.24267578 C38.23992264 133.29787616 33.11892819 141.2877404 27 149 C25.88625 150.546875 25.88625 150.546875 24.75 152.125 C18.53303604 158.62455323 10.92676952 163.79395903 3 168 C2.21238281 168.48726562 1.42476562 168.97453125 0.61328125 169.4765625 C-18.22809664 180.46032539 -44.52923085 180.80872572 -65.21777344 175.70263672 C-70.42223499 174.29395598 -75.27038224 172.58066365 -80 170 C-80.70769531 169.64292969 -81.41539062 169.28585937 -82.14453125 168.91796875 C-88.47626628 165.60240172 -94.54305613 161.62055247 -100 157 C-100 156.34 -100 155.68 -100 155 C-101.32 154.34 -102.64 153.68 -104 153 C-104 152.34 -104 151.68 -104 151 C-104.87398438 150.64421875 -104.87398438 150.64421875 -105.765625 150.28125 C-117.21772167 143.71431345 -122.9928387 124.18817635 -126.4375 112.25 C-129.23734439 100.66826485 -129.28458873 88.85786379 -129 77 C-128.98324219 75.96488281 -128.96648437 74.92976563 -128.94921875 73.86328125 C-128.376939 60.83165385 -124.74064564 47.21536804 -118 36 C-117.44054687 35.06542969 -116.88109375 34.13085938 -116.3046875 33.16796875 C-113.19935307 28.14700593 -110.06431063 23.29655695 -106 19 C-105.34 19 -104.68 19 -104 19 C-103.34 17.68 -102.68 16.36 -102 15 C-101.34 15 -100.68 15 -100 15 C-99.70996094 14.14921875 -99.70996094 14.14921875 -99.4140625 13.28125 C-97.4120779 10.051529 -94.54479663 8.44335041 -91.375 6.5 C-90.74198975 6.10345215 -90.10897949 5.7069043 -89.45678711 5.29833984 C-85.08118308 2.58677685 -80.68777364 0.13828271 -76 -2 C-74.96875 -2.515625 -73.9375 -3.03125 -72.875 -3.5625 C-50.64393102 -12.89343033 -21.22313036 -10.78616132 0 0 Z M-69.3359375 49.7578125 C-78.35997951 61.9169677 -82.03379929 79.07030297 -80 94 C-78.27384143 102.66117625 -75.57971441 111.41978304 -71 119 C-70.34 119.33 -69.68 119.66 -69 120 C-68.67 120.99 -68.34 121.98 -68 123 C-62.12986888 129.8507251 -51.95834762 134.27780045 -43 135 C-32.37783205 135.1082317 -24.18073486 131.61421116 -16 125 C-16 124.34 -16 123.68 -16 123 C-15.01 122.67 -14.02 122.34 -13 122 C-2.71463117 109.34108451 0.08457506 93.38983096 -1.48828125 77.44140625 C-3.61899332 63.11196098 -9.35925681 51.45252126 -20.484375 42.03125 C-21.97005719 40.81248562 -21.97005719 40.81248562 -24 41 C-24 40.34 -24 39.68 -24 39 C-40.64092335 31.99329543 -57.81789077 35.90571225 -69.3359375 49.7578125 Z " fill="#1790FE" transform="translate(521,119)"/>
<path d="M0 0 C0.67482422 0.62455078 0.67482422 0.62455078 1.36328125 1.26171875 C1.36328125 1.92171875 1.36328125 2.58171875 1.36328125 3.26171875 C3.34328125 4.25171875 3.34328125 4.25171875 5.36328125 5.26171875 C5.36328125 5.92171875 5.36328125 6.58171875 5.36328125 7.26171875 C6.02328125 7.26171875 6.68328125 7.26171875 7.36328125 7.26171875 C9.9486966 10.40651156 12.1105673 13.87356429 14.36328125 17.26171875 C14.98203125 18.16148437 15.60078125 19.06125 16.23828125 19.98828125 C20.38113373 26.18470285 23.2895118 32.1058791 25.36328125 39.26171875 C25.73582031 40.463125 26.10835937 41.66453125 26.4921875 42.90234375 C29.25278132 52.71713078 29.75315302 62.34121146 29.80078125 72.51171875 C29.81077148 73.7541333 29.82076172 74.99654785 29.83105469 76.27661133 C29.68924964 91.57838881 26.00383244 106.49234055 19.36328125 120.26171875 C18.90050781 121.23109375 18.43773437 122.20046875 17.9609375 123.19921875 C9.10076015 140.18303059 -6.01123344 153.17350355 -23.63671875 160.26171875 C-24.27738281 160.54660156 -24.91804688 160.83148438 -25.578125 161.125 C-46.79425798 170.06052037 -73.09575993 168.34326666 -94.26171875 160.26171875 C-98.46574528 158.42245714 -102.563778 156.37361395 -106.63671875 154.26171875 C-106.63671875 153.60171875 -106.63671875 152.94171875 -106.63671875 152.26171875 C-107.69439453 151.9059375 -107.69439453 151.9059375 -108.7734375 151.54296875 C-112.13958743 150.03669702 -114.60655048 148.10587358 -117.44921875 145.76171875 C-118.42503906 144.96765625 -119.40085938 144.17359375 -120.40625 143.35546875 C-121.14230469 142.66453125 -121.87835938 141.97359375 -122.63671875 141.26171875 C-122.63671875 140.60171875 -122.63671875 139.94171875 -122.63671875 139.26171875 C-123.29671875 139.26171875 -123.95671875 139.26171875 -124.63671875 139.26171875 C-126.36328125 137.14453125 -126.36328125 137.14453125 -128.26171875 134.38671875 C-128.89335937 133.48179687 -129.525 132.576875 -130.17578125 131.64453125 C-131.63671875 129.26171875 -131.63671875 129.26171875 -131.63671875 127.26171875 C-132.29671875 127.26171875 -132.95671875 127.26171875 -133.63671875 127.26171875 C-143.28848091 110.8853682 -147.36330903 94.01022264 -147.15820312 75.10498047 C-147.13671806 72.76164402 -147.15817151 70.42137106 -147.18359375 68.078125 C-147.21015688 54.43323298 -145.1885928 40.84452284 -139.01171875 28.51171875 C-138.67833496 27.82343994 -138.34495117 27.13516113 -138.00146484 26.42602539 C-134.46808412 19.43277507 -129.99217626 12.9854884 -124.63671875 7.26171875 C-123.97671875 7.26171875 -123.31671875 7.26171875 -122.63671875 7.26171875 C-121.97671875 5.94171875 -121.31671875 4.62171875 -120.63671875 3.26171875 C-119.97671875 3.26171875 -119.31671875 3.26171875 -118.63671875 3.26171875 C-118.39953125 2.6790625 -118.16234375 2.09640625 -117.91796875 1.49609375 C-112.27022919 -8.35301305 -95.95311497 -14.21383789 -85.58740234 -17.36035156 C-81.64154883 -18.39972773 -77.66747375 -19.12225018 -73.63671875 -19.73828125 C-72.55583984 -19.93164062 -72.55583984 -19.93164062 -71.453125 -20.12890625 C-45.08777888 -24.29474056 -20.89180954 -15.28158413 0 0 Z M-86.63671875 36.26171875 C-88.53999104 39.16146868 -90.09221819 42.16088237 -91.63671875 45.26171875 C-92.17296875 46.04546875 -92.70921875 46.82921875 -93.26171875 47.63671875 C-100.85551203 62.13396047 -99.70239742 79.07159961 -95.30029297 94.26708984 C-93.25098743 100.42707006 -89.82420959 106.30254938 -85.63671875 111.26171875 C-84.97671875 111.26171875 -84.31671875 111.26171875 -83.63671875 111.26171875 C-83.43046875 111.83921875 -83.22421875 112.41671875 -83.01171875 113.01171875 C-79.780652 118.29891888 -73.4370056 120.73584228 -67.63671875 122.26171875 C-57.76415696 124.24472973 -48.77069037 122.88675761 -40.0390625 117.7265625 C-38.08837731 116.32633521 -36.28658122 115.00628631 -34.63671875 113.26171875 C-34.63671875 112.60171875 -34.63671875 111.94171875 -34.63671875 111.26171875 C-33.97671875 111.26171875 -33.31671875 111.26171875 -32.63671875 111.26171875 C-29.6743618 107.62848186 -29.6743618 107.62848186 -28.63671875 103.26171875 C-27.97671875 103.26171875 -27.31671875 103.26171875 -26.63671875 103.26171875 C-19.58511313 87.17310399 -17.43941067 68.07158444 -23.63671875 51.26171875 C-27.75963985 40.85363348 -35.88563396 30.11115266 -46.19921875 25.26171875 C-60.54105245 20.91050373 -76.81680284 24.79753785 -86.63671875 36.26171875 Z " fill="#1790FE" transform="translate(347.63671875,130.73828125)"/>
<path d="M0 0 C0.33 0 0.66 0 1 0 C0.52893113 7.6974658 0.03672565 15.35414835 -1 23 C-1.17158892 24.70784595 -1.33798229 26.41621949 -1.5 28.125 C-1.85559902 31.7825899 -2.33381344 35.38355867 -3 39 C-3.66 39 -4.32 39 -5 39 C-4.938125 40.2375 -4.938125 40.2375 -4.875 41.5 C-4.99272072 44.7961801 -5.68249675 47.47572769 -6.5546875 50.6328125 C-7.44497959 55.36541782 -7.14385884 60.20470518 -7 65 C-7.66 64.67 -8.32 64.34 -9 64 C-9.36281305 55.91061264 -8.71442585 48.72376579 -6.85546875 40.8515625 C-5.88960525 36.50297157 -5.17211137 32.15174928 -4.5 27.75 C-4.31800049 26.56289429 -4.31800049 26.56289429 -4.13232422 25.35180664 C-3.88404947 23.73180574 -3.63600479 22.11176956 -3.38818359 20.49169922 C-2.72890641 16.25988606 -2.02124208 12.0362653 -1.3125 7.8125 C-1.18101563 7.0277832 -1.04953125 6.24306641 -0.9140625 5.43457031 C-0.61007931 3.62292856 -0.30515381 1.81144495 0 0 Z " fill="#A3CEFE" transform="translate(106,221)"/>
<path d="M0 0 C-1.27875 -0.165 -2.5575 -0.33 -3.875 -0.5 C-18.18859107 -1.90921431 -32.68386395 -0.88880667 -47 0 C-35.58544952 -6.65848778 -11.49066263 -6.57398487 0 0 Z " fill="#B7D9FE" transform="translate(504,114)"/>
<path d="M0 0 C1.38546581 3.78021135 0.56345892 6.42411256 -0.4375 10.25 C-2.28696903 18.23634355 -2.28605976 25.84199931 -2 34 C-4.31268903 30.31296708 -4.51525012 26.55030137 -4.75 22.3125 C-4.79165283 21.60005127 -4.83330566 20.88760254 -4.8762207 20.15356445 C-5.17500977 13.50531856 -4.80404661 7.70606991 -1 2 C-0.67 1.34 -0.34 0.68 0 0 Z " fill="#85BEFE" transform="translate(252,181)"/>
<path d="M0 0 C2.90172167 5.24144981 2.38585688 10.28334038 1 16 C0.34 16 -0.32 16 -1 16 C-0.938125 17.423125 -0.938125 17.423125 -0.875 18.875 C-1 22 -1 22 -3 24 C-2.29563752 15.95543903 -1.18531495 7.98649105 0 0 Z " fill="#83BCFE" transform="translate(110,197)"/>
<path d="M0 0 C0.66 0 1.32 0 2 0 C4.57029971 3.1594616 6.74963662 6.60758926 9 10 C9.52980469 10.78375 10.05960937 11.5675 10.60546875 12.375 C13.24752475 16.4009901 13.24752475 16.4009901 14 18 C13.67 18.66 13.34 19.32 13 20 C12.608125 19.278125 12.21625 18.55625 11.8125 17.8125 C10.06714219 14.88662876 10.06714219 14.88662876 7.4375 12.4375 C5.20703066 10.20703066 4.2018521 8.8329371 3 6 C2.46375 4.9275 1.9275 3.855 1.375 2.75 C0.92125 1.8425 0.4675 0.935 0 0 Z " fill="#98C8FE" transform="translate(353,138)"/>
<path d="M0 0 C0.66 0.33 1.32 0.66 2 1 C1.236875 1.556875 0.47375 2.11375 -0.3125 2.6875 C-3.00402422 5.0034627 -4.25112253 6.95847397 -6 10 C-8.49280294 12.89486792 -10.16999977 14.45285711 -14 15 C-13.34 13.68 -12.68 12.36 -12 11 C-11.34 11 -10.68 11 -10 11 C-9.34 9.68 -8.68 8.36 -8 7 C-7.34 7 -6.68 7 -6 7 C-5.7525 6.401875 -5.505 5.80375 -5.25 5.1875 C-3.83629988 2.71352479 -2.34944617 1.56629745 0 0 Z " fill="#90C2FE" transform="translate(235,127)"/>
<path d="M0 0 C1.41191984 2.82383967 0.590944 4.87844953 -0.1953125 7.82421875 C-1.53705358 11.4521303 -3.52668119 14.03201743 -6 17 C-6.66 17 -7.32 17 -8 17 C-7.4417876 13.51117249 -5.83761363 10.82916099 -4.0546875 7.81640625 C-2.57754852 5.27244467 -1.2892349 2.64293155 0 0 Z " fill="#7AB7FE" transform="translate(516,225)"/>
<path d="M0 0 C0.33 0 0.66 0 1 0 C0.67 6.27 0.34 12.54 0 19 C-0.66 19 -1.32 19 -2 19 C-2.33 19.99 -2.66 20.98 -3 22 C-3.45755719 14.37404682 -1.74536299 7.3970146 0 0 Z " fill="#98C8FE" transform="translate(120,141)"/>
<path d="M0 0 C0.33 0 0.66 0 1 0 C0.53079589 9.59441508 -0.94194229 18.6416621 -3 28 C-3.33 28 -3.66 28 -4 28 C-3.43044584 21.05628655 -2.83701942 14.11605228 -2.18359375 7.1796875 C-1.97202261 5.03241048 -1.97202261 5.03241048 -2 3 C-1.34 3 -0.68 3 0 3 C0 2.01 0 1.02 0 0 Z " fill="#B7DAFE" transform="translate(161,209)"/>
<path d="M0 0 C1.45606519 4.52092968 0.27032841 7.51648796 -1 12 C-1.66 12 -2.32 12 -3 12 C-3.33 13.65 -3.66 15.3 -4 17 C-5.47551172 13.14312442 -4.46711142 10.61206371 -3.125 6.8125 C-2.75632812 5.74644531 -2.38765625 4.68039063 -2.0078125 3.58203125 C-1 1 -1 1 0 0 Z " fill="#83BDFD" transform="translate(400,162)"/>
<path d="M0 0 C0.93423645 3.01031744 1.04449911 3.86650268 0 7 C0.33 7.99 0.66 8.98 1 10 C-1.17424117 12.50037734 -2.73045798 13.43628586 -6 14 C-5.67 12.68 -5.34 11.36 -5 10 C-4.34 10 -3.68 10 -3 10 C-2.87625 9.0925 -2.7525 8.185 -2.625 7.25 C-2.07890323 4.41029677 -1.42736197 2.47409409 0 0 Z " fill="#7BBBFD" transform="translate(324,224)"/>
<path d="M0 0 C2.93200474 2.85276137 5.64315404 5.65079784 8 9 C7.67 9.66 7.34 10.32 7 11 C6.67 10.01 6.34 9.02 6 8 C5.071875 7.7834375 5.071875 7.7834375 4.125 7.5625 C2 7 2 7 0.1875 5.125 C-0.204375 4.42375 -0.59625 3.7225 -1 3 C-0.67 2.01 -0.34 1.02 0 0 Z " fill="#8BBFFE" transform="translate(726,253)"/>
<path d="M0 0 C2.02721618 2.39580094 3.04849549 4.15457936 4 7.1875 C4.33 8.115625 4.66 9.04375 5 10 C5.99 10.33 6.98 10.66 8 11 C7.67 11.99 7.34 12.98 7 14 C2.21052632 10.68421053 2.21052632 10.68421053 1.25 7.5625 C1.1675 6.716875 1.085 5.87125 1 5 C0.814375 4.071875 0.62875 3.14375 0.4375 2.1875 C0.293125 1.465625 0.14875 0.74375 0 0 Z " fill="#A0CDFE" transform="translate(445,228)"/>
<path d="M0 0 C-0.66 0 -1.32 0 -2 0 C-2.33 0.66 -2.66 1.32 -3 2 C-3.99 1.67 -4.98 1.34 -6 1 C-6 1.66 -6 2.32 -6 3 C-9.3 3.33 -12.6 3.66 -16 4 C-13.71185277 1.71185277 -12.19248378 1.24548839 -9.125 0.3125 C-8.26132812 0.04050781 -7.39765625 -0.23148437 -6.5078125 -0.51171875 C-3.91305068 -1.01692938 -2.469215 -0.85561171 0 0 Z " fill="#99C8FE" transform="translate(269,114)"/>
<path d="M0 0 C4.05606165 0.46800711 7.46588679 0.87953208 11 3 C11 5.64 11 8.28 11 11 C8.4345406 8.4345406 8.45953913 6.52313332 8 3 C5.36 2.34 2.72 1.68 0 1 C0 0.67 0 0.34 0 0 Z " fill="#54A2FD" transform="translate(251,32)"/>
<path d="M0 0 C2.91843445 2.626591 4.94517315 5.66976339 7 9 C7 9.66 7 10.32 7 11 C5.125 10.8125 5.125 10.8125 3 10 C1.31157047 6.80087037 0.60840923 3.54905382 0 0 Z " fill="#8EC1FE" transform="translate(254,230)"/>
<path d="M0 0 C1.25541557 3.76624671 0.37061958 5.37188934 -1 9 C-1.99 9 -2.98 9 -4 9 C-4.33 9.66 -4.66 10.32 -5 11 C-4.32902328 6.80639551 -2.1441606 3.59665648 0 0 Z " fill="#85BEFE" transform="translate(406,150)"/>
<path d="M0 0 C0.66 0.33 1.32 0.66 2 1 C-0.07357484 6.06873851 -2.27236232 8.26847601 -7 11 C-5.22054913 6.95579349 -2.60470327 3.53921513 0 0 Z " fill="#A3CEFE" transform="translate(684,118)"/>
<path d="M0 0 C0.93423645 3.01031744 1.04449911 3.86650268 0 7 C-1.9375 7.625 -1.9375 7.625 -4 8 C-4.99 8.495 -4.99 8.495 -6 9 C-4.47291037 5.56404834 -2.40072955 2.88087546 0 0 Z " fill="#91C8FE" transform="translate(676,129)"/>
<path d="M0 0 C0.95465783 2.16967689 1.14401212 3.56328793 0.3984375 5.82421875 C-0.35870385 7.5684743 -1.17609198 9.28627131 -2 11 C-3.24386556 7.26840331 -2.77811718 4.81984796 -2 1 C-1.34 0.67 -0.68 0.34 0 0 Z " fill="#98C7FE" transform="translate(372,233)"/>
<path d="M0 0 C0.66 0 1.32 0 2 0 C1.45773019 3.79588866 -0.20127563 5.47211993 -3 8 C-3.66 7.67 -4.32 7.34 -5 7 C-4.21654285 5.82780457 -3.42297164 4.66236332 -2.625 3.5 C-2.18414062 2.8503125 -1.74328125 2.200625 -1.2890625 1.53125 C-0.65097656 0.77328125 -0.65097656 0.77328125 0 0 Z " fill="#5CA5FD" transform="translate(419,134)"/>
<path d="M0 0 C-0.33 0.66 -0.66 1.32 -1 2 C-3.64860427 2.59355614 -6.29197322 2.74209269 -9 3 C-6.07868595 -0.19953443 -4.37453972 -1.45817991 0 0 Z " fill="#8EC2FE" transform="translate(448,118)"/>
<path d="M0 0 C0.99 0.33 1.98 0.66 3 1 C4.1875 3.5625 4.1875 3.5625 5 6 C3.68 5.67 2.36 5.34 1 5 C0.67 3.35 0.34 1.7 0 0 Z " fill="#6DB0FD" transform="translate(588,284)"/>
</svg>
